<svg version="1.1" xmlns="http://www.w3.org/2000/svg" viewBox="0 0 1258.1777648925781 971.0215532469965" width="1258.1777648925781" height="971.0215532469965">
  <!-- svg-source:excalidraw -->
  
  <defs>
    <style>
      @font-face {
        font-family: "Virgil";
        src: url("https://excalidraw.com/Virgil.woff2");
      }
      @font-face {
        font-family: "Cascadia";
        src: url("https://excalidraw.com/Cascadia.woff2");
      }
    </style>
  </defs>
  <rect x="0" y="0" width="1258.1777648925781" height="971.0215532469965" fill="#ffffff"></rect><g stroke-linecap="round"><g transform="translate(508.6391906738281 582.5059509277344) rotate(0 -0.6476164171472192 -70.04381138132885)"><path d="M-0.58 0.03 C-1.08 -46.39, -0.83 -91.9, -0.18 -139.44 M0.79 -0.88 C0.48 -37.02, -0.74 -75.64, -2.08 -140.12" stroke="#000000" stroke-width="1" fill="none"></path></g><g transform="translate(508.6391906738281 582.5059509277344) rotate(0 -0.6476164171472192 -70.04381138132885)"><path d="M8.22 -112.13 C4.43 -122.22, 1.53 -131.31, -1.02 -140.15 M9.59 -113.04 C6.02 -119.24, 2.2 -127.91, -2.92 -140.83" stroke="#000000" stroke-width="1" fill="none"></path></g><g transform="translate(508.6391906738281 582.5059509277344) rotate(0 -0.6476164171472192 -70.04381138132885)"><path d="M-12.29 -111.67 C-9.38 -121.75, -5.58 -130.99, -1.02 -140.15 M-10.92 -112.58 C-8.98 -118.89, -7.28 -127.68, -2.92 -140.83" stroke="#000000" stroke-width="1" fill="none"></path></g></g><g stroke-linecap="round" transform="translate(389.4096374511719 121.341552734375) rotate(0 87.47955322265625 31.153228759765625)"><path d="M-0.76 -1.89 C41.9 0.33, 80.82 1.7, 176.55 -0.4 M-0.53 0.66 C69.19 1.26, 139.84 0.73, 174.25 -0.57 M176.86 -0.31 C175.73 19.52, 172.76 36.96, 173.91 63.83 M174.54 0.24 C175.29 23.04, 174.37 45.39, 174.44 62.17 M174.99 61.41 C114.78 60.84, 56.95 60.11, -0.98 61.69 M175.68 63.15 C138.67 62.54, 104.01 61.15, 0.43 62.28 M-0.02 61.29 C-1.08 40.52, -0.82 16.56, -0.31 1.29 M-0.1 62.17 C0.01 44.25, 0.41 25.32, -0.7 -0.77" stroke="#000000" stroke-width="1" fill="none"></path></g><g stroke-linecap="round" transform="translate(259.8144836425781 329.1344909667969) rotate(0 50.340850830078125 48.838592529296875)"><path d="M68.99 3.45 C76.48 5.69, 83.61 11.95, 88.78 18.3 C93.95 24.64, 98.53 33.48, 99.98 41.51 C101.44 49.53, 100.45 59.01, 97.5 66.45 C94.54 73.88, 88.83 80.94, 82.25 86.09 C75.67 91.25, 66.34 96.03, 58 97.37 C49.66 98.7, 39.99 96.94, 32.2 94.12 C24.41 91.3, 16.51 86.8, 11.26 80.45 C6 74.1, 2.14 64.17, 0.67 56.01 C-0.8 47.86, -0.5 39.08, 2.44 31.52 C5.37 23.95, 11.56 15.76, 18.28 10.61 C25.01 5.45, 33.81 1.69, 42.8 0.58 C51.79 -0.53, 67 2.71, 72.22 3.97 C77.44 5.23, 74.5 7.27, 74.14 8.13 M26.82 5.53 C33.81 1.47, 45.6 0.94, 54.33 1.41 C63.06 1.87, 72.44 4.17, 79.2 8.34 C85.95 12.52, 91.27 19.29, 94.86 26.44 C98.46 33.6, 101.18 43.15, 100.77 51.29 C100.36 59.43, 97.05 68.18, 92.41 75.27 C87.78 82.36, 80.46 90.02, 72.99 93.83 C65.52 97.64, 56.24 98.81, 47.6 98.11 C38.95 97.41, 28.02 94.05, 21.13 89.62 C14.24 85.19, 9.79 78.71, 6.25 71.55 C2.7 64.38, -0.72 54.93, -0.13 46.62 C0.47 38.31, 5.35 28.73, 9.79 21.7 C14.24 14.67, 23.23 6.83, 26.56 4.45 C29.89 2.06, 29.14 6.75, 29.77 7.39" stroke="#000000" stroke-width="1" fill="none"></path></g><g stroke-linecap="round" transform="translate(256.8822937011719 597.5661926269531) rotate(0 56.396636962890625 58.4818115234375)"><path d="M58.38 -1.24 C69.41 14.74, 85.78 28.14, 114.77 59 M56.87 -0.72 C78.18 23.86, 100.03 45.24, 112.28 59.56 M111.83 59.08 C96.05 74.96, 80.65 93.21, 55.28 115.32 M112.06 58.2 C91.69 80.71, 68.15 104.67, 57.82 117.9 M56.99 118.31 C39.1 96.34, 17.46 75.25, -0.01 59.63 M57.57 116.81 C35.54 93.54, 13.23 72.21, 0.26 59.6 M-0.08 58.21 C22.21 37.47, 41.76 16.57, 57.05 1.73 M-0.34 59.14 C18.3 40.21, 36.91 20.52, 56.9 -0.22" stroke="#000000" stroke-width="1" fill="none"></path></g><g transform="translate(442.9257507324219 137.12701416015625) rotate(0 24 12.5)"><text x="0" y="18" font-family="Virgil, Segoe UI Emoji" font-size="20px" fill="#000000" text-anchor="start" style="white-space: pre;" direction="ltr">DOM</text></g><g transform="translate(281.15533447265625 365.47308349609375) rotate(0 29 12.5)"><text x="29" y="18" font-family="Virgil, Segoe UI Emoji" font-size="20px" fill="#000000" text-anchor="middle" style="white-space: pre;" direction="ltr">VDOM</text></g><g transform="translate(282.7789306640625 643.5480041503906) rotate(0 30.5 12.5)"><text x="30.5" y="18" font-family="Virgil, Segoe UI Emoji" font-size="20px" fill="#000000" text-anchor="middle" style="white-space: pre;" direction="ltr">DATA</text></g><g stroke-linecap="round"><g transform="translate(314.8623352050781 595.4073791503906) rotate(0 -1.4888460147008686 -82.38955301180485)"><path d="M-0.41 -0.88 C-1.33 -28.15, -3.81 -137.17, -4.56 -164.41 M1.58 1.28 C0.97 -26.26, -1.49 -138.15, -2.18 -166.06" stroke="#000000" stroke-width="1" fill="none"></path></g><g transform="translate(314.8623352050781 595.4073791503906) rotate(0 -1.4888460147008686 -82.38955301180485)"><path d="M7.27 -139.16 C6.24 -150.5, 2.2 -159.55, -0.71 -165.1 M8.92 -137.12 C4.44 -147.49, 1.57 -157.69, -2.13 -166.16" stroke="#000000" stroke-width="1" fill="none"></path></g><g transform="translate(314.8623352050781 595.4073791503906) rotate(0 -1.4888460147008686 -82.38955301180485)"><path d="M-13.25 -138.69 C-6.43 -150.14, -2.64 -159.37, -0.71 -165.1 M-11.6 -136.64 C-8.66 -147.38, -4.12 -157.75, -2.13 -166.16" stroke="#000000" stroke-width="1" fill="none"></path></g></g><g stroke-linecap="round" transform="translate(583.7825927734375 341.43646240234375) rotate(0 50.340850830078125 48.838592529296875)"><path d="M56.83 0.7 C64.85 0.97, 73.67 4.77, 80.47 9.81 C87.28 14.86, 94.32 23.55, 97.65 30.99 C100.99 38.43, 101.67 46.6, 100.5 54.43 C99.32 62.26, 95.87 71.4, 90.59 77.97 C85.3 84.53, 76.71 90.44, 68.77 93.82 C60.84 97.2, 51.07 99.28, 42.97 98.25 C34.88 97.22, 26.83 92.91, 20.22 87.65 C13.61 82.4, 6.58 74.21, 3.33 66.73 C0.07 59.25, -0.36 50.87, 0.71 42.79 C1.79 34.7, 4.86 24.73, 9.78 18.24 C14.69 11.74, 22.01 6.67, 30.2 3.79 C38.39 0.92, 54.01 1.19, 58.92 1.01 C63.82 0.83, 59.86 1.98, 59.65 2.7 M62.17 0.4 C70.07 1.68, 80.86 7.07, 86.98 12.78 C93.11 18.5, 96.84 26.53, 98.91 34.68 C100.98 42.84, 101.71 53.7, 99.43 61.73 C97.15 69.76, 91.02 77.33, 85.22 82.88 C79.41 88.43, 72.37 93.03, 64.6 95.04 C56.83 97.05, 46.73 96.8, 38.58 94.92 C30.43 93.04, 21.94 89.48, 15.69 83.76 C9.43 78.05, 3.29 68.38, 1.05 60.65 C-1.19 52.93, 0.2 44.96, 2.23 37.4 C4.26 29.84, 7.45 21.18, 13.23 15.29 C19.01 9.39, 28.8 4.5, 36.92 2.04 C45.03 -0.41, 57.45 0.36, 61.93 0.56 C66.42 0.75, 64.1 2.07, 63.84 3.21" stroke="#000000" stroke-width="1" fill="none"></path></g><g stroke-linecap="round" transform="translate(580.8504028320312 609.8681640625) rotate(0 56.396636962890625 58.4818115234375)"><path d="M57.53 -1.37 C74.38 18.29, 92.02 35.46, 112.2 60.59 M57.33 -0.63 C77.61 22.79, 98.92 46.43, 113.34 59.09 M113.5 57.71 C96.67 71.87, 84.56 88.68, 57.67 115.85 M113.3 59.84 C90.81 80.12, 69.96 103.36, 56.12 116.98 M55.76 116.59 C45.68 103.34, 33.32 90.35, 0.97 59.25 M57.61 116.09 C43.67 102.6, 29.08 87.4, -0.69 59.68 M-1.51 59.3 C20.8 37.18, 40.37 18.61, 57.47 -1.74 M0.96 59.15 C13.23 45.64, 28.01 30.42, 57.68 0.49" stroke="#000000" stroke-width="1" fill="none"></path></g><g transform="translate(605.1234436035156 377.7750549316406) rotate(0 29 12.5)"><text x="29" y="18" font-family="Virgil, Segoe UI Emoji" font-size="20px" fill="#000000" text-anchor="middle" style="white-space: pre;" direction="ltr">VDOM</text></g><g transform="translate(606.7470397949219 655.8499755859375) rotate(0 30.5 12.5)"><text x="30.5" y="18" font-family="Virgil, Segoe UI Emoji" font-size="20px" fill="#000000" text-anchor="middle" style="white-space: pre;" direction="ltr">DATA</text></g><g stroke-linecap="round"><g transform="translate(638.8304443359375 607.7093505859375) rotate(0 -2.1908038863167008 -83.05177060477433)"><path d="M-0.02 -0.14 C-0.67 -27.66, -2.88 -138.59, -3.59 -165.96 M-1.49 -1.26 C-2.3 -28.56, -3.74 -137.28, -4.36 -164.77" stroke="#000000" stroke-width="1" fill="none"></path></g><g transform="translate(638.8304443359375 607.7093505859375) rotate(0 -2.1908038863167008 -83.05177060477433)"><path d="M6.16 -136.2 C1.99 -146.5, 1.15 -153.42, -3.86 -166.39 M6.24 -137.53 C3.99 -145.62, -0.5 -155.98, -5.13 -164.49" stroke="#000000" stroke-width="1" fill="none"></path></g><g transform="translate(638.8304443359375 607.7093505859375) rotate(0 -2.1908038863167008 -83.05177060477433)"><path d="M-14.36 -135.84 C-11.83 -146.25, -5.97 -153.29, -3.86 -166.39 M-14.28 -137.16 C-9.7 -145.21, -7.36 -155.69, -5.13 -164.49" stroke="#000000" stroke-width="1" fill="none"></path></g></g><g stroke-linecap="round"><g transform="translate(408.1992492675781 589.5090026855469) rotate(0 -3.9607805465348065 -75.49692631466314)"><path d="M0.34 0.92 C0.41 -37.9, -4.28 -74.56, -8.46 -151.88 M0.54 -0.1 C-1.07 -31.95, -2.76 -64.96, -7.25 -151.91" stroke="#000000" stroke-width="1" fill="none"></path></g><g transform="translate(408.1992492675781 589.5090026855469) rotate(0 -3.9607805465348065 -75.49692631466314)"><path d="M4.79 -123.37 C3.52 -132.4, -2.25 -139.31, -8.58 -151.06 M4.99 -124.39 C2.7 -129.84, 0.05 -136.44, -7.37 -151.09" stroke="#000000" stroke-width="1" fill="none"></path></g><g transform="translate(408.1992492675781 589.5090026855469) rotate(0 -3.9607805465348065 -75.49692631466314)"><path d="M-15.7 -122.31 C-12.1 -131.75, -13 -138.91, -8.58 -151.06 M-15.5 -123.33 C-13.47 -128.9, -11.79 -135.71, -7.37 -151.09" stroke="#000000" stroke-width="1" fill="none"></path></g></g><g stroke-linecap="round"><g transform="translate(457.3249206542969 581.7612609863281) rotate(0 -1.7182639259845018 -73.6938533494249)"><path d="M1.8 -1.63 C-2.75 -57.47, -4.18 -110.17, -5.23 -147.51 M0.78 0.34 C-1.05 -36.7, -2.61 -71.74, -3.76 -147.73" stroke="#000000" stroke-width="1" fill="none"></path></g><g transform="translate(457.3249206542969 581.7612609863281) rotate(0 -1.7182639259845018 -73.6938533494249)"><path d="M8.84 -121.38 C1.74 -132.16, -2.45 -139.84, -5.54 -147.28 M7.82 -119.4 C4.84 -127.04, 1.47 -132.66, -4.07 -147.5" stroke="#000000" stroke-width="1" fill="none"></path></g><g transform="translate(457.3249206542969 581.7612609863281) rotate(0 -1.7182639259845018 -73.6938533494249)"><path d="M-11.68 -120.98 C-11.07 -132.01, -7.57 -139.84, -5.54 -147.28 M-12.69 -119 C-10.65 -126.71, -8.98 -132.43, -4.07 -147.5" stroke="#000000" stroke-width="1" fill="none"></path></g></g><g transform="translate(353.0393371582031 502.0005187988281) rotate(0 74 12.5)"><text x="0" y="18" font-family="Virgil, Segoe UI Emoji" font-size="20px" fill="#000000" text-anchor="start" style="white-space: pre;" direction="ltr">    proxy (vue)</text></g><g stroke-linecap="round"><g transform="translate(570.4207458496094 385.1519470214844) rotate(0 -92.74392852000892 -1.9166548107750714)"><path d="M-0.15 -1.72 C-61.14 1, -120.01 -1.19, -185.34 -4.58 M-0.23 0.74 C-42.46 -0.68, -85.59 -1.37, -183.37 -2.05" stroke="#000000" stroke-width="1" fill="none"></path></g><g transform="translate(570.4207458496094 385.1519470214844) rotate(0 -92.74392852000892 -1.9166548107750714)"><path d="M-155.25 -13.79 C-165.92 -7.68, -174.51 -5.78, -184.79 -3.98 M-155.32 -11.33 C-161.77 -9.79, -169.01 -7.56, -182.82 -1.45" stroke="#000000" stroke-width="1" fill="none"></path></g><g transform="translate(570.4207458496094 385.1519470214844) rotate(0 -92.74392852000892 -1.9166548107750714)"><path d="M-155.42 6.73 C-166.09 6.21, -174.62 1.48, -184.79 -3.98 M-155.5 9.19 C-161.73 6, -168.92 3.5, -182.82 -1.45" stroke="#000000" stroke-width="1" fill="none"></path></g></g><g stroke-linecap="round"><g transform="translate(475.7496337655617 287.3450846085325) rotate(0 -0.29067451448815973 -48.95854838145897)"><path d="M0.21 -1.22 C-1.51 -22.8, 2.28 -44.64, -1.57 -95.81 M-0.62 -0.77 C1.41 -19.92, 1.29 -41.1, 0.28 -97.15" stroke="#000000" stroke-width="1" fill="none"></path></g><g transform="translate(475.7496337655617 287.3450846085325) rotate(0 -0.29067451448815973 -48.95854838145897)"><path d="M11.17 -70.34 C6.62 -75.54, 7.85 -80.96, -1.4 -95.59 M10.35 -69.89 C9.54 -74.75, 7.19 -81.6, 0.44 -96.92" stroke="#000000" stroke-width="1" fill="none"></path></g><g transform="translate(475.7496337655617 287.3450846085325) rotate(0 -0.29067451448815973 -48.95854838145897)"><path d="M-9.35 -70.02 C-9.04 -75.23, -2.95 -80.73, -1.4 -95.59 M-10.17 -69.57 C-6.74 -74.45, -4.86 -81.37, 0.44 -96.92" stroke="#000000" stroke-width="1" fill="none"></path></g></g><g stroke-linecap="round"><g transform="translate(495.5179748535156 236.56362915039062) rotate(0 0 0)"><path d="M0 0 C0 0, 0 0, 0 0 M0 0 C0 0, 0 0, 0 0" stroke="#000000" stroke-width="1" fill="none"></path></g><g transform="translate(495.5179748535156 236.56362915039062) rotate(0 0 0)"><path d="MNaN NaN CNaN NaN, NaN NaN, NaN NaN MNaN NaN CNaN NaN, NaN NaN, NaN NaN" stroke="#000000" stroke-width="1" fill="none"></path></g><g transform="translate(495.5179748535156 236.56362915039062) rotate(0 0 0)"><path d="MNaN NaN CNaN NaN, NaN NaN, NaN NaN MNaN NaN CNaN NaN, NaN NaN, NaN NaN" stroke="#000000" stroke-width="1" fill="none"></path></g></g><g transform="translate(500.8262023925781 223.33328247070312) rotate(0 80.5 12.5)"><text x="0" y="18" font-family="Virgil, Segoe UI Emoji" font-size="20px" fill="#000000" text-anchor="start" style="white-space: pre;" direction="ltr">patch difference</text></g><g transform="translate(391.1496887207031 676.7969055175781) rotate(0 80 12.5)"><text x="0" y="18" font-family="Virgil, Segoe UI Emoji" font-size="20px" fill="#000000" text-anchor="start" style="white-space: pre;" direction="ltr">setState(react)</text></g><g stroke-linecap="round"><g transform="translate(386.1266174316406 658.6087341308594) rotate(0 87.71585107641295 -1.1030901144739005)"><path d="M-0.83 0.92 C35.85 -2.09, 73.33 -4.87, 175.98 -1.77 M0.85 -0.47 C56.38 0.19, 114.15 -1.69, 176.26 -2.09" stroke="#000000" stroke-width="1" fill="none"></path></g><g transform="translate(386.1266174316406 658.6087341308594) rotate(0 87.71585107641295 -1.1030901144739005)"><path d="M147.36 9.42 C153.34 6.25, 160.19 1.9, 175.31 -0.86 M149.04 8.03 C156.59 5.41, 166.3 1.07, 175.6 -1.18" stroke="#000000" stroke-width="1" fill="none"></path></g><g transform="translate(386.1266174316406 658.6087341308594) rotate(0 87.71585107641295 -1.1030901144739005)"><path d="M147.12 -11.1 C153.33 -10.05, 160.22 -10.17, 175.31 -0.86 M148.8 -12.48 C156.24 -8.49, 166.03 -6.2, 175.6 -1.18" stroke="#000000" stroke-width="1" fill="none"></path></g></g><g transform="translate(747.6247863769531 595.4460144042969) rotate(0 229 37.5)"><text x="0" y="18" font-family="Virgil, Segoe UI Emoji" font-size="20px" fill="#000000" text-anchor="start" style="white-space: pre;" direction="ltr">react need shouldComponentUpdate to</text><text x="0" y="43" font-family="Virgil, Segoe UI Emoji" font-size="20px" fill="#000000" text-anchor="start" style="white-space: pre;" direction="ltr">reduce unnecessary diff, cause it don't hijack </text><text x="0" y="68" font-family="Virgil, Segoe UI Emoji" font-size="20px" fill="#000000" text-anchor="start" style="white-space: pre;" direction="ltr">each data changes</text></g><g transform="translate(21.96624755859375 329.6006774902344) rotate(0 92 40.5)"><text x="0" y="20" font-family="Virgil, Segoe UI Emoji" font-size="20px" fill="#000000" text-anchor="start" style="white-space: pre;" direction="ltr"></text><text x="0" y="47" font-family="Virgil, Segoe UI Emoji" font-size="20px" fill="#000000" text-anchor="start" style="white-space: pre;" direction="ltr">- 频繁 update 性能</text><text x="0" y="74" font-family="Virgil, Segoe UI Emoji" font-size="20px" fill="#000000" text-anchor="start" style="white-space: pre;" direction="ltr">- 跨平台</text></g><g transform="translate(622.1125183105469 514.7089538574219) rotate(0 30 12.5)"><text x="0" y="18" font-family="Virgil, Segoe UI Emoji" font-size="20px" fill="#000000" text-anchor="start" style="white-space: pre;" direction="ltr">render</text></g><g transform="translate(764.7042541503906 904.5115051269531) rotate(0 90.5 12.5)"><text x="0" y="18" font-family="Virgil, Segoe UI Emoji" font-size="20px" fill="#000000" text-anchor="start" style="white-space: pre;" direction="ltr">Authored by Anson</text></g><g transform="translate(761.0081481933594 363.9230041503906) rotate(0 156.5 25)"><text x="0" y="18" font-family="Virgil, Segoe UI Emoji" font-size="20px" fill="#000000" text-anchor="start" style="white-space: pre;" direction="ltr">svelte have not vdom layer, </text><text x="0" y="43" font-family="Virgil, Segoe UI Emoji" font-size="20px" fill="#000000" text-anchor="start" style="white-space: pre;" direction="ltr">actually vue could not have too</text></g><g transform="translate(10 645.5902404785156) rotate(0 109 14)"><text x="0" y="21" font-family="Virgil, Segoe UI Emoji" font-size="20px" fill="#000000" text-anchor="start" style="white-space: pre;" direction="ltr">- 声明式写法代替命令式</text></g><g transform="translate(361.5052185058594 530.5153503417969) rotate(0 113 12.5)"><text x="0" y="18" font-family="Virgil, Segoe UI Emoji" font-size="20px" fill="#000000" text-anchor="start" style="white-space: pre;" direction="ltr">get diff info this step</text></g><g transform="translate(16.595703125 769.0215532469965) rotate(0 163.5 96)"><text x="0" y="17" font-family="Virgil, Segoe UI Emoji" font-size="19.360174542107234px" fill="#000000" text-anchor="start" style="white-space: pre;" direction="ltr"></text><text x="0" y="41" font-family="Virgil, Segoe UI Emoji" font-size="19.360174542107234px" fill="#000000" text-anchor="start" style="white-space: pre;" direction="ltr">vue:</text><text x="0" y="65" font-family="Virgil, Segoe UI Emoji" font-size="19.360174542107234px" fill="#000000" text-anchor="start" style="white-space: pre;" direction="ltr">x+(a+b+c+d) = y</text><text x="0" y="89" font-family="Virgil, Segoe UI Emoji" font-size="19.360174542107234px" fill="#000000" text-anchor="start" style="white-space: pre;" direction="ltr">diff = a+b+c+d </text><text x="0" y="113" font-family="Virgil, Segoe UI Emoji" font-size="19.360174542107234px" fill="#000000" text-anchor="start" style="white-space: pre;" direction="ltr"></text><text x="0" y="137" font-family="Virgil, Segoe UI Emoji" font-size="19.360174542107234px" fill="#000000" text-anchor="start" style="white-space: pre;" direction="ltr">react: </text><text x="0" y="161" font-family="Virgil, Segoe UI Emoji" font-size="19.360174542107234px" fill="#000000" text-anchor="start" style="white-space: pre;" direction="ltr">x -&gt; y (x , y are immutable state)</text><text x="0" y="185" font-family="Virgil, Segoe UI Emoji" font-size="19.360174542107234px" fill="#000000" text-anchor="start" style="white-space: pre;" direction="ltr">diff = y-x</text></g><g transform="translate(369.7478942871094 296.4672546386719) rotate(0 139.5 25)"><text x="0" y="18" font-family="Virgil, Segoe UI Emoji" font-size="20px" fill="#000000" text-anchor="start" style="white-space: pre;" direction="ltr">react diff recursive</text><text x="0" y="43" font-family="Virgil, Segoe UI Emoji" font-size="20px" fill="#000000" text-anchor="start" style="white-space: pre;" direction="ltr">vue diff changed components</text></g><g transform="translate(764.1777648925781 471.9217834472656) rotate(0 242 37.5)"><text x="0" y="18" font-family="Virgil, Segoe UI Emoji" font-size="20px" fill="#000000" text-anchor="start" style="white-space: pre;" direction="ltr">vue collecting data of which component(s)</text><text x="0" y="43" font-family="Virgil, Segoe UI Emoji" font-size="20px" fill="#000000" text-anchor="start" style="white-space: pre;" direction="ltr">need to update, and only diff that component(s).</text><text x="0" y="68" font-family="Virgil, Segoe UI Emoji" font-size="20px" fill="#000000" text-anchor="start" style="white-space: pre;" direction="ltr">collecting using watcher, which use much memory</text></g><g transform="translate(41.120330810546875 10) rotate(0 173.5 18)"><text x="0" y="25" font-family="Virgil, Segoe UI Emoji" font-size="28px" fill="#000000" text-anchor="start" style="white-space: pre;" direction="ltr">Vue vs React in reactive</text></g></svg>